<?xml version="1.0" standalone="no"?>
<!DOCTYPE svg PUBLIC "-//W3C//DTD SVG 20010904//EN"
 "http://www.w3.org/TR/2001/REC-SVG-20010904/DTD/svg10.dtd">
<svg version="1.0" xmlns="http://www.w3.org/2000/svg"
 width="1000.000000pt" height="1000.000000pt" viewBox="0 0 1000.000000 1000.000000"
 preserveAspectRatio="xMidYMid meet">
<metadata>
Created by potrace 1.11, written by Peter Selinger 2001-2013
</metadata>
<g transform="translate(0.000000,1000.000000) scale(0.100000,-0.100000)"
fill="#000000" stroke="none">
<path d="M4957 8994 c-1 -1 -72 -4 -157 -8 -85 -3 -166 -8 -180 -11 -14 -2
-48 -7 -75 -9 -28 -3 -61 -7 -75 -10 -14 -2 -43 -7 -65 -10 -65 -9 -252 -44
-298 -57 -23 -6 -55 -13 -72 -16 -76 -12 -347 -102 -361 -119 -13 -18 -14 -18
-8 -1 6 16 4 17 -12 9 -10 -6 -53 -23 -94 -39 -41 -15 -77 -30 -80 -33 -3 -3
-12 -6 -20 -8 -29 -5 -425 -199 -444 -217 -6 -6 -37 -24 -68 -40 -32 -17 -58
-33 -58 -37 0 -5 -5 -8 -10 -8 -6 0 -16 -5 -23 -10 -7 -6 -41 -29 -77 -52 -36
-23 -66 -45 -68 -50 -2 -4 -8 -8 -13 -8 -12 0 -257 -188 -305 -234 -6 -6 -42
-39 -80 -72 -88 -79 -160 -150 -254 -254 -41 -45 -85 -93 -98 -106 -12 -12
-22 -26 -22 -29 0 -3 -9 -15 -20 -27 -30 -33 -42 -47 -80 -98 -19 -25 -37 -47
-40 -50 -3 -3 -25 -34 -49 -70 -25 -36 -48 -67 -51 -70 -3 -3 -33 -48 -65
-100 -32 -52 -68 -105 -79 -117 -11 -13 -16 -23 -12 -23 5 0 4 -6 -2 -12 -41
-52 -192 -362 -257 -530 -20 -51 -37 -93 -39 -95 -2 -3 -48 -12 -136 -27 -14
-2 -43 -7 -65 -11 -22 -4 -49 -9 -60 -11 -11 -2 -47 -9 -80 -15 -33 -6 -69
-12 -80 -14 -77 -11 -172 -29 -182 -34 -20 -10 -2 -24 102 -76 55 -28 102 -52
105 -55 3 -3 77 -41 165 -85 88 -44 162 -82 165 -85 3 -3 37 -21 75 -40 39
-19 82 -43 97 -53 16 -10 28 -15 28 -12 0 4 15 -2 33 -13 25 -16 183 -99 302
-159 11 -5 34 -17 50 -26 17 -9 98 -51 180 -93 83 -42 164 -84 180 -94 17 -10
35 -19 41 -19 10 -1 40 33 119 135 17 21 37 45 45 54 8 9 37 45 65 81 27 35
55 70 62 77 7 7 34 41 60 75 26 34 50 64 53 67 3 3 53 64 111 135 57 72 109
135 114 141 6 6 24 28 40 49 28 36 41 52 125 154 19 24 47 60 61 82 15 21 29
35 33 32 3 -4 6 -2 6 3 0 5 16 27 35 49 19 22 35 43 35 46 0 3 11 18 25 33 42
46 34 53 -40 37 -22 -5 -56 -12 -75 -15 -68 -11 -145 -25 -175 -31 -5 -2 -41
-8 -80 -14 -38 -6 -103 -17 -143 -24 -40 -8 -75 -10 -78 -6 -12 20 100 312
168 439 67 123 132 235 141 238 4 2 5 8 1 13 -3 5 -1 9 4 9 5 0 27 25 47 55
21 30 43 55 48 55 6 0 8 3 4 6 -3 3 4 16 16 29 12 13 33 38 47 56 77 101 264
285 415 409 68 55 58 48 170 128 55 40 105 76 112 82 7 5 16 10 22 10 5 0 11
3 13 8 4 9 160 104 211 128 20 10 37 22 37 26 0 5 5 6 10 3 6 -3 10 -1 10 4 0
6 9 11 20 11 11 0 20 5 20 10 0 6 9 10 19 10 11 0 21 3 23 8 4 9 235 118 271
127 15 4 27 11 27 16 0 5 6 9 14 9 8 0 27 5 43 11 15 6 29 10 31 9 1 0 15 6
30 14 15 8 83 34 152 57 125 41 143 47 168 48 8 1 10 6 6 14 -5 8 -2 8 9 -2 9
-7 17 -9 17 -3 0 5 17 13 38 17 20 5 42 9 47 11 6 2 19 5 30 7 11 3 38 10 60
15 22 6 51 13 65 16 35 7 68 14 120 26 58 12 159 30 207 35 21 2 56 7 78 10
22 4 60 8 85 11 25 2 65 6 90 8 60 7 293 19 353 20 48 0 51 16 5 24 -27 4 -38
7 -58 15 -8 3 -26 8 -40 10 -14 3 -56 13 -95 22 -38 9 -79 18 -90 21 -11 2
-40 7 -64 10 -25 3 -49 8 -55 12 -6 3 -28 7 -51 8 -22 1 -40 3 -40 4 0 1 -11
3 -25 4 -14 0 -31 5 -37 9 -8 5 -13 3 -13 -5 0 -8 -3 -9 -8 -3 -4 6 -12 11
-18 12 -46 8 -509 32 -517 27z m-1414 -536 c-4 -7 -8 -17 -8 -23 0 -9 -7 -11
-36 -6 -5 0 -7 6 -4 11 4 6 10 8 15 5 4 -3 13 2 20 10 15 18 24 20 13 3z
m-1087 -440 c5 -7 3 -8 -6 -3 -10 6 -12 4 -7 -8 3 -10 2 -17 -3 -17 -11 0 -13
23 -3 33 9 9 11 9 19 -5z m319 2 c-3 -5 -12 -10 -18 -10 -7 0 -6 4 3 10 19 12
23 12 15 0z m-265 -100 c0 -5 -2 -10 -4 -10 -3 0 -8 5 -11 10 -3 6 -1 10 4 10
6 0 11 -4 11 -10z m25 -28 c15 -11 14 -39 -1 -39 -7 0 -11 4 -8 9 3 4 0 8 -5
8 -6 0 -11 7 -11 15 0 16 9 19 25 7z m30 -62 c3 -5 1 -10 -4 -10 -6 0 -11 5
-11 10 0 6 2 10 4 10 3 0 8 -4 11 -10z m45 -67 c0 -7 -4 -13 -10 -13 -5 0 -10
5 -10 11 0 5 -6 7 -12 3 -10 -5 -10 -4 -1 6 6 7 9 20 6 29 -4 11 -1 10 10 -4
9 -11 17 -26 17 -32z m16 -31 c-3 -5 4 -16 15 -25 11 -10 17 -22 13 -28 -9
-15 -43 19 -39 39 5 23 4 22 11 22 3 0 3 -4 0 -8z m44 -72 c0 -5 -5 -10 -11
-10 -5 0 -7 5 -4 10 3 6 8 10 11 10 2 0 4 -4 4 -10z m37 -65 c0 -22 -14 -18
-20 4 -3 13 0 18 7 15 7 -3 13 -11 13 -19z m28 -33 c-3 -3 0 -10 5 -17 7 -8 5
-12 -5 -12 -8 0 -12 4 -9 9 3 4 0 8 -5 8 -6 0 -11 4 -11 8 0 5 7 9 15 9 8 0
13 -3 10 -5z m25 -67 c7 -8 9 -15 6 -15 -4 0 -14 7 -22 15 -9 8 -11 15 -6 15
5 0 15 -7 22 -15z m64 -101 c3 -8 2 -12 -4 -9 -6 3 -10 10 -10 16 0 14 7 11
14 -7z m-679 -334 c-3 -5 -11 -10 -16 -10 -6 0 -7 5 -4 10 3 6 11 10 16 10 6
0 7 -4 4 -10z m-432 -109 c-12 -21 -22 -27 -37 -23 -11 3 -15 7 -8 10 7 2 9 9
6 14 -4 7 -2 8 5 4 6 -4 18 0 27 8 23 24 25 19 7 -13z m-48 -41 c-3 -5 -14
-10 -23 -9 -14 0 -13 2 3 9 27 11 27 11 20 0z m814 -686 c-6 -7 -16 -11 -23
-7 -7 5 -5 9 7 11 9 2 14 8 11 14 -4 7 -2 8 5 4 9 -6 9 -11 0 -22z m-1594 -65
c0 -30 -13 -25 -19 8 -2 11 1 20 8 20 6 0 12 -13 11 -28z m520 -249 c-3 -5
-12 -10 -18 -10 -7 0 -6 4 3 10 19 12 23 12 15 0z"/>
<path d="M2620 7706 c0 -2 8 -10 18 -17 15 -13 16 -12 3 4 -13 16 -21 21 -21
13z"/>
<path d="M6009 7121 c0 -3 -2 -15 -5 -26 -2 -11 -6 -49 -9 -85 -6 -86 -16
-190 -21 -215 -3 -11 -7 -40 -10 -65 -3 -25 -14 -94 -25 -155 -12 -60 -22
-121 -24 -135 -2 -14 -10 -46 -18 -72 -8 -27 -12 -48 -9 -48 4 0 3 -4 -3 -8
-5 -4 -39 -65 -75 -135 -36 -71 -72 -136 -81 -146 -9 -9 -22 -28 -29 -41 -13
-25 -13 -25 -27 15 -7 22 -17 49 -22 60 -5 11 -15 35 -22 53 -33 89 -126 200
-232 278 -239 177 -531 201 -813 68 -28 -13 -54 -24 -58 -24 -4 0 -19 -8 -34
-18 -15 -10 -61 -41 -102 -68 -97 -63 -270 -237 -338 -339 -88 -132 -157 -295
-186 -439 -16 -75 -27 -135 -31 -161 -49 -291 -132 -482 -295 -674 -161 -189
-345 -300 -636 -382 l-156 -44 96 -93 c322 -310 715 -541 1196 -702 69 -23
132 -43 140 -45 8 -2 49 -12 90 -23 66 -18 118 -29 210 -47 41 -8 128 -22 195
-31 17 -2 120 -6 229 -9 219 -7 210 -10 151 51 -175 179 -224 471 -116 695 46
94 54 105 112 168 134 142 307 210 501 197 81 -5 200 -36 223 -57 5 -5 17 -9
27 -9 10 0 18 -4 18 -10 0 -5 5 -10 11 -10 27 0 151 -114 197 -182 77 -114
105 -206 106 -345 l1 -102 30 27 c193 173 340 356 449 563 78 147 120 267 155
444 10 51 8 281 -3 325 -3 14 -9 38 -12 55 -10 58 -85 233 -135 318 -61 102
-145 192 -229 246 -108 70 -183 84 -375 67 -57 -4 -86 -4 -80 2 6 6 53 42 105
81 136 102 218 186 294 301 82 123 126 204 162 295 15 39 30 72 33 75 3 3 6
10 6 15 0 22 38 161 46 170 5 5 9 34 9 65 0 46 -4 60 -22 76 -49 41 -166 113
-216 130 -29 10 -52 23 -52 28 0 4 -8 2 -17 -5 -11 -9 -14 -10 -10 -2 5 8 -5
18 -30 28 -48 21 -233 65 -234 56z m281 -115 c0 -2 -9 -6 -20 -9 -11 -3 -18
-1 -14 4 5 9 34 13 34 5z m-6 -44 c3 -5 -1 -9 -9 -9 -8 0 -12 4 -9 9 3 4 7 8
9 8 2 0 6 -4 9 -8z m-77 -91 c0 -11 -5 -18 -9 -15 -4 3 -5 11 -1 19 7 21 12
19 10 -4z m-1473 -369 c3 -5 -1 -9 -9 -9 -8 0 -12 4 -9 9 3 4 7 8 9 8 2 0 6
-4 9 -8z m-445 -556 c17 -21 -4 -30 -23 -10 -9 8 -16 17 -16 20 0 10 29 3 39
-10z m1369 -207 c-7 -5 -8 -9 -3 -9 6 0 3 -4 -5 -10 -9 -6 -17 -5 -22 3 -10
16 10 37 29 30 12 -5 12 -7 1 -14z m-38 -44 c0 -5 -5 -3 -10 5 -5 8 -10 20
-10 25 0 6 5 3 10 -5 5 -8 10 -19 10 -25z m-850 -126 c-7 -11 -14 -19 -16 -16
-7 7 7 37 17 37 6 0 5 -9 -1 -21z m1568 -189 c-1 -27 -2 -28 -14 -12 -12 15
-13 15 -9 -6 2 -12 0 -20 -6 -17 -14 9 -11 26 9 46 9 10 18 18 19 18 1 1 1
-12 1 -29z m-468 -25 c0 -8 -9 -15 -20 -15 -20 0 -26 11 -13 23 12 13 33 7 33
-8z m-1916 -50 c-4 -8 -11 -15 -16 -15 -6 0 -5 6 2 15 7 8 14 15 16 15 2 0 1
-7 -2 -15z m1665 -354 c-3 -6 -10 -7 -18 -2 -7 5 -10 14 -6 21 9 14 29 -2 24
-19z m1041 3 c11 -12 11 -15 -1 -12 -8 2 -13 -3 -11 -10 1 -8 -2 -11 -8 -7 -5
3 -10 1 -10 -4 0 -6 -10 -11 -22 -11 -19 0 -20 2 -8 10 11 7 11 10 2 10 -7 0
-10 5 -7 10 4 6 12 10 18 9 25 -3 38 1 32 11 -10 16 1 12 15 -6z m-1575 -14
c10 -11 15 -23 12 -27 -4 -3 -2 -11 3 -18 7 -8 5 -12 -5 -12 -8 0 -12 4 -9 9
3 4 0 8 -5 8 -6 0 -11 7 -11 16 0 8 -4 13 -8 10 -4 -2 -9 4 -9 15 -2 24 9 24
32 -1z m-440 -112 c5 4 5 2 2 -5 -4 -6 -1 -14 5 -16 7 -3 1 -6 -14 -6 -16 -1
-28 4 -28 10 0 5 -4 7 -10 4 -6 -3 -7 1 -4 9 4 12 11 13 24 6 9 -5 21 -6 25
-2z m-929 -99 c0 -12 -7 -19 -19 -19 -12 0 -16 -4 -11 -12 4 -7 3 -9 -1 -5
-14 12 -15 38 -2 30 8 -5 8 -2 0 9 -15 18 -8 28 15 21 10 -2 18 -13 18 -24z
m2632 -394 c-3 -3 -9 2 -12 12 -6 14 -5 15 5 6 7 -7 10 -15 7 -18z m-1781 -41
c-3 -3 -12 -4 -19 -1 -8 3 -5 6 6 6 11 1 17 -2 13 -5z m6 -51 c-9 -3 -9 -10 3
-28 12 -19 13 -25 2 -31 -7 -4 -10 -3 -5 1 4 5 1 18 -7 31 -15 22 -12 35 8 33
6 0 6 -3 -1 -6z m23 -162 c0 -16 -3 -17 -14 -9 -12 10 -7 19 13 28 1 0 1 -9 1
-19z m-526 -311 c-28 -8 -35 -6 -26 8 3 6 16 7 29 4 22 -6 22 -6 -3 -12z m531
-77 c7 -10 9 -15 5 -11 -5 4 -16 2 -25 -5 -14 -10 -14 -10 -4 4 7 9 10 19 6
22 -3 4 -4 7 -1 7 3 0 12 -8 19 -17z"/>
<path d="M5060 4946 c0 -2 8 -10 18 -17 15 -13 16 -12 3 4 -13 16 -21 21 -21
13z"/>
<path d="M7699 4398 c-137 -171 -139 -174 -163 -201 -10 -12 -30 -38 -45 -57
-14 -19 -28 -37 -32 -40 -3 -3 -50 -61 -105 -130 -54 -69 -101 -127 -104 -130
-3 -3 -41 -50 -85 -105 -44 -55 -89 -111 -101 -125 -96 -111 -252 -316 -246
-322 5 -5 42 -2 83 6 108 22 491 88 514 90 13 1 19 -4 16 -14 -2 -8 -4 -19 -5
-25 -5 -24 -38 -122 -47 -138 -5 -10 -7 -22 -4 -27 4 -6 2 -10 -2 -10 -5 0
-15 -17 -22 -37 -14 -40 -95 -209 -135 -279 -41 -74 -149 -234 -158 -234 -4 0
-8 -5 -8 -12 0 -9 -53 -78 -145 -187 -37 -44 -222 -226 -280 -276 -130 -112
-200 -167 -293 -230 -39 -27 -81 -57 -92 -67 -10 -10 -22 -18 -25 -18 -3 0
-52 -28 -108 -61 -138 -84 -376 -204 -522 -264 -126 -53 -379 -143 -424 -151
-13 -3 -32 -9 -43 -15 -10 -5 -18 -8 -18 -5 0 2 -21 -3 -47 -11 -27 -8 -59
-17 -73 -19 -14 -3 -50 -11 -80 -19 -79 -20 -120 -28 -302 -60 -49 -9 -107
-18 -130 -20 -24 -3 -61 -7 -83 -10 -126 -16 -304 -27 -429 -27 -84 0 -88 -1
-63 -15 15 -7 32 -11 37 -8 5 3 11 1 15 -5 3 -5 19 -10 34 -10 15 0 32 -5 39
-12 7 -7 12 -9 12 -6 0 4 15 2 33 -3 17 -6 43 -12 57 -14 14 -2 36 -7 50 -10
49 -11 116 -24 160 -30 49 -7 83 -12 115 -19 12 -2 50 -7 85 -11 36 -3 83 -8
105 -10 199 -22 601 -17 795 9 19 2 62 8 95 11 33 4 107 16 165 27 58 10 114
21 125 22 11 2 47 11 80 19 33 9 71 18 85 21 14 3 41 10 60 16 19 6 46 13 59
16 31 6 260 82 286 94 11 6 39 16 62 24 145 50 574 266 595 299 4 7 8 9 8 5 0
-7 49 22 124 72 13 8 43 28 67 44 62 41 181 129 201 149 9 9 19 17 23 17 4 0
12 6 19 13 7 6 35 30 61 52 101 83 144 123 275 255 153 153 212 220 322 364
43 56 81 106 85 111 29 36 103 148 103 155 0 6 4 10 9 10 5 0 13 10 17 23 4
12 10 24 13 27 11 8 71 110 71 120 0 6 5 10 10 10 6 0 10 9 10 19 0 11 4 21 9
23 7 3 134 240 139 260 1 5 13 32 27 62 14 30 25 60 25 65 0 6 5 11 12 11 6 0
9 3 5 6 -3 3 5 31 19 61 13 31 24 61 24 67 0 7 6 20 13 29 11 16 51 24 322 71
22 4 89 16 120 22 11 3 52 9 90 15 39 6 76 14 84 19 17 9 -6 23 -214 130 -88
45 -174 91 -191 101 -17 10 -34 16 -37 12 -4 -3 -7 -1 -7 5 0 7 -6 12 -14 12
-7 0 -19 7 -26 15 -7 9 -15 13 -18 10 -3 -3 -10 -1 -16 4 -11 9 -152 83 -346
182 -58 30 -108 58 -112 64 -4 5 -8 6 -8 1 0 -5 -7 -3 -15 4 -8 7 -21 10 -30
6 -8 -3 -14 -1 -12 5 2 10 -36 31 -268 153 -71 38 -135 72 -141 77 -6 5 -13 7
-16 4 -3 -3 -11 1 -18 10 -7 8 -20 15 -30 15 -10 0 -64 -59 -131 -142z m587
-150 c-3 -25 -18 -27 -22 -3 -1 8 2 13 7 9 5 -3 9 0 9 5 0 6 2 11 5 11 3 0 3
-10 1 -22z m-549 -233 c1 -11 -17 -8 -30 4 -4 4 0 7 10 6 10 0 19 -5 20 -10z
m854 -18 c-6 -8 -7 -18 -3 -22 4 -5 1 -5 -6 -1 -10 6 -10 11 -1 22 6 8 14 14
16 14 3 0 0 -6 -6 -13z m-874 -3 c-3 -3 -12 -4 -19 -1 -8 3 -5 6 6 6 11 1 17
-2 13 -5z m413 -270 c0 -12 -14 -34 -22 -34 -6 0 -8 6 -5 13 4 10 -2 13 -21
10 -21 -4 -24 -2 -12 6 12 8 60 12 60 5z m482 -19 c3 -13 2 -22 -3 -20 -4 3
-10 1 -14 -5 -13 -21 -24 1 -13 25 14 32 24 32 30 0z m-759 -362 c-7 -3 -9
-11 -6 -19 3 -8 -1 -14 -8 -14 -7 0 -9 -3 -6 -7 8 -8 -22 -43 -37 -43 -6 0 -5
5 2 12 7 7 12 22 12 35 0 13 7 26 15 29 8 4 12 10 9 15 -3 5 3 6 12 2 10 -4
13 -8 7 -10z m555 -8 c-3 -3 -9 2 -12 12 -6 14 -5 15 5 6 7 -7 10 -15 7 -18z
m-18 1 c0 -2 -8 -10 -17 -17 -16 -13 -17 -12 -4 4 13 16 21 21 21 13z m-40
-36 c0 -5 -5 -10 -11 -10 -5 0 -7 5 -4 10 3 6 8 10 11 10 2 0 4 -4 4 -10z
m-21 -30 c-6 -5 -18 -6 -26 -3 -19 8 -16 11 13 11 17 0 22 -3 13 -8z m-119
-90 c0 -5 -2 -10 -4 -10 -3 0 -8 5 -11 10 -3 6 -1 10 4 10 6 0 11 -4 11 -10z
m-20 -20 c0 -5 -4 -10 -10 -10 -5 0 -10 5 -10 10 0 6 5 10 10 10 6 0 10 -4 10
-10z m-74 -329 c-9 -10 -13 -21 -9 -26 5 -4 2 -5 -4 -1 -7 4 -13 2 -13 -3 0
-6 -7 -11 -16 -11 -8 0 -12 -4 -9 -10 3 -5 1 -10 -4 -10 -14 0 -14 3 0 34 8
16 17 22 27 19 11 -5 13 -3 7 6 -4 8 -2 17 6 21 21 14 32 0 15 -19z m-710
-575 c0 -20 -3 -22 -18 -12 -23 14 -23 23 0 29 9 3 17 5 18 6 0 0 0 -10 0 -23z
m-158 -361 c0 -18 -6 -25 -19 -25 -21 0 -26 25 -7 36 7 5 9 2 4 -7 -4 -8 -1
-6 6 4 16 21 16 22 16 -8z m-25 -34 c4 0 7 -9 7 -18 0 -15 -2 -16 -10 -3 -7
11 -10 11 -10 2 0 -7 -4 -10 -10 -7 -5 3 -10 2 -10 -2 0 -5 -10 -9 -22 -10
-20 -2 -21 -1 -6 8 9 5 15 16 12 23 -5 12 9 14 49 7z m-950 -62 c-9 -9 -6 -17
10 -31 18 -16 16 -16 -10 2 -18 12 -33 24 -33 26 0 3 4 3 9 -1 5 -3 12 -1 16
5 3 5 9 10 13 10 3 0 1 -5 -5 -11z m34 -91 c4 -28 -6 -18 -12 12 -2 12 -1 20
2 16 4 -4 8 -16 10 -28z m308 -139 c-2 -10 2 -19 8 -19 8 0 7 -3 -2 -9 -7 -5
-10 -14 -6 -21 6 -9 3 -9 -14 -1 -11 7 -21 17 -20 24 0 9 2 9 6 -1 2 -6 9 -10
14 -6 5 3 5 13 -1 25 -8 13 -18 18 -35 15 -14 -3 -25 -1 -25 4 0 9 47 18 67
12 6 -2 10 -12 8 -23z m-831 -207 c2 -4 -2 -15 -9 -25 -7 -10 -16 -14 -19 -8
-3 5 0 12 6 14 7 3 3 6 -10 6 -13 1 -20 5 -17 11 7 12 42 13 49 2z"/>
</g>
</svg>
